<svg width="176" height="52" viewBox="0 0 176 52" fill="none" xmlns="http://www.w3.org/2000/svg">
<line y1="-0.439175" x2="12.0868" y2="-0.439175" transform="matrix(0.833779 -0.552098 0.833779 0.552098 152.098 41.1018)" stroke="white" stroke-opacity="0.5" stroke-width="0.878351"/>
<line y1="-0.439175" x2="12.0868" y2="-0.439175" transform="matrix(0.833779 -0.552098 0.833779 0.552098 149.216 41.1018)" stroke="white" stroke-opacity="0.5" stroke-width="0.878351"/>
<line y1="-0.439175" x2="12.0868" y2="-0.439175" transform="matrix(0.833779 -0.552098 0.833779 0.552098 146.33 41.1018)" stroke="white" stroke-opacity="0.5" stroke-width="0.878351"/>
<line y1="-0.439175" x2="12.0868" y2="-0.439175" transform="matrix(0.833779 -0.552098 0.833779 0.552098 143.465 41.1018)" stroke="white" stroke-opacity="0.5" stroke-width="0.878351"/>
<line y1="-0.439175" x2="12.0868" y2="-0.439175" transform="matrix(0.833779 -0.552098 0.833779 0.552098 140.587 41.1018)" stroke="white" stroke-opacity="0.5" stroke-width="0.878351"/>
<line y1="-0.439175" x2="12.0868" y2="-0.439175" transform="matrix(0.833779 -0.552098 0.833779 0.552098 137.714 41.1018)" stroke="white" stroke-opacity="0.5" stroke-width="0.878351"/>
<line y1="-0.439175" x2="12.0868" y2="-0.439175" transform="matrix(0.833779 -0.552098 0.833779 0.552098 134.827 41.1018)" stroke="white" stroke-opacity="0.5" stroke-width="0.878351"/>
<line y1="-0.439175" x2="12.0868" y2="-0.439175" transform="matrix(0.833779 -0.552098 0.833779 0.552098 131.937 41.1018)" stroke="white" stroke-opacity="0.5" stroke-width="0.878351"/>
<line y1="-0.439175" x2="12.0868" y2="-0.439175" transform="matrix(0.833779 -0.552098 0.833779 0.552098 129.059 41.1018)" stroke="white" stroke-opacity="0.5" stroke-width="0.878351"/>
<line y1="-0.439175" x2="12.0868" y2="-0.439175" transform="matrix(0.833779 -0.552098 0.833779 0.552098 126.177 41.1018)" stroke="white" stroke-opacity="0.5" stroke-width="0.878351"/>
<line y1="-0.439175" x2="12.0868" y2="-0.439175" transform="matrix(0.833779 -0.552098 0.833779 0.552098 123.307 41.1018)" stroke="white" stroke-opacity="0.5" stroke-width="0.878351"/>
<line y1="-0.439175" x2="12.0868" y2="-0.439175" transform="matrix(0.833779 -0.552098 0.833779 0.552098 120.434 41.1018)" stroke="white" stroke-opacity="0.5" stroke-width="0.878351"/>
<line y1="-0.439175" x2="12.0868" y2="-0.439175" transform="matrix(0.833779 -0.552098 0.833779 0.552098 117.548 41.1018)" stroke="white" stroke-opacity="0.5" stroke-width="0.878351"/>
<line y1="-0.439175" x2="12.0868" y2="-0.439175" transform="matrix(0.833779 -0.552098 0.833779 0.552098 114.674 41.1018)" stroke="white" stroke-opacity="0.5" stroke-width="0.878351"/>
<line y1="-0.439175" x2="12.0868" y2="-0.439175" transform="matrix(0.833779 -0.552098 0.833779 0.552098 111.779 41.1018)" stroke="white" stroke-opacity="0.5" stroke-width="0.878351"/>
<line y1="-0.439175" x2="12.0868" y2="-0.439175" transform="matrix(0.833779 -0.552098 0.833779 0.552098 108.897 41.1018)" stroke="white" stroke-opacity="0.5" stroke-width="0.878351"/>
<line y1="-0.439175" x2="12.0868" y2="-0.439175" transform="matrix(0.833779 -0.552098 0.833779 0.552098 94.5081 41.1018)" stroke="white" stroke-opacity="0.5" stroke-width="0.878351"/>
<line y1="-0.439175" x2="12.0868" y2="-0.439175" transform="matrix(0.833779 -0.552098 0.833779 0.552098 91.6345 41.1018)" stroke="white" stroke-opacity="0.5" stroke-width="0.878351"/>
<line y1="-0.439175" x2="12.0868" y2="-0.439175" transform="matrix(0.833779 -0.552098 0.833779 0.552098 88.748 41.1018)" stroke="white" stroke-opacity="0.5" stroke-width="0.878351"/>
<line y1="-0.439175" x2="12.0868" y2="-0.439175" transform="matrix(0.833779 -0.552098 0.833779 0.552098 85.8745 41.1018)" stroke="white" stroke-opacity="0.5" stroke-width="0.878351"/>
<line y1="-0.439175" x2="12.0868" y2="-0.439175" transform="matrix(0.833779 -0.552098 0.833779 0.552098 82.9968 41.1018)" stroke="white" stroke-opacity="0.5" stroke-width="0.878351"/>
<line y1="-0.439175" x2="12.0868" y2="-0.439175" transform="matrix(0.833779 -0.552098 0.833779 0.552098 80.1147 41.1018)" stroke="white" stroke-opacity="0.5" stroke-width="0.878351"/>
<line y1="-0.439175" x2="12.0868" y2="-0.439175" transform="matrix(0.833779 -0.552098 0.833779 0.552098 77.2283 41.1018)" stroke="white" stroke-opacity="0.5" stroke-width="0.878351"/>
<line y1="-0.439175" x2="12.0868" y2="-0.439175" transform="matrix(0.833779 -0.552098 0.833779 0.552098 106.028 41.1018)" stroke="white" stroke-opacity="0.5" stroke-width="0.878351"/>
<line y1="-0.439175" x2="12.0868" y2="-0.439175" transform="matrix(0.833779 -0.552098 0.833779 0.552098 103.154 41.1018)" stroke="white" stroke-opacity="0.5" stroke-width="0.878351"/>
<line y1="-0.439175" x2="12.0868" y2="-0.439175" transform="matrix(0.833779 -0.552098 0.833779 0.552098 100.268 41.1018)" stroke="white" stroke-opacity="0.5" stroke-width="0.878351"/>
<line y1="-0.439175" x2="12.0868" y2="-0.439175" transform="matrix(0.833779 -0.552098 0.833779 0.552098 97.3943 41.1018)" stroke="white" stroke-opacity="0.5" stroke-width="0.878351"/>
<line y1="-0.439175" x2="12.0868" y2="-0.439175" transform="matrix(0.833779 -0.552098 0.833779 0.552098 62.835 41.1018)" stroke="white" stroke-opacity="0.5" stroke-width="0.878351"/>
<line y1="-0.439175" x2="12.0868" y2="-0.439175" transform="matrix(0.833779 -0.552098 0.833779 0.552098 59.9573 41.1018)" stroke="white" stroke-opacity="0.5" stroke-width="0.878351"/>
<line y1="-0.439175" x2="12.0868" y2="-0.439175" transform="matrix(0.833779 -0.552098 0.833779 0.552098 57.0837 41.1018)" stroke="white" stroke-opacity="0.5" stroke-width="0.878351"/>
<line y1="-0.439175" x2="12.0868" y2="-0.439175" transform="matrix(0.833779 -0.552098 0.833779 0.552098 54.1973 41.1018)" stroke="white" stroke-opacity="0.5" stroke-width="0.878351"/>
<line y1="-0.439175" x2="12.0868" y2="-0.439175" transform="matrix(0.833779 -0.552098 0.833779 0.552098 51.324 41.1018)" stroke="white" stroke-opacity="0.5" stroke-width="0.878351"/>
<line y1="-0.439175" x2="12.0868" y2="-0.439175" transform="matrix(0.833779 -0.552098 0.833779 0.552098 48.446 41.1018)" stroke="white" stroke-opacity="0.5" stroke-width="0.878351"/>
<line y1="-0.439175" x2="12.0868" y2="-0.439175" transform="matrix(0.833779 -0.552098 0.833779 0.552098 45.564 41.1018)" stroke="white" stroke-opacity="0.5" stroke-width="0.878351"/>
<line y1="-0.439175" x2="12.0868" y2="-0.439175" transform="matrix(0.833779 -0.552098 0.833779 0.552098 74.3635 41.1018)" stroke="white" stroke-opacity="0.5" stroke-width="0.878351"/>
<line y1="-0.439175" x2="12.0868" y2="-0.439175" transform="matrix(0.833779 -0.552098 0.833779 0.552098 71.4771 41.1018)" stroke="white" stroke-opacity="0.5" stroke-width="0.878351"/>
<line y1="-0.439175" x2="12.0868" y2="-0.439175" transform="matrix(0.833779 -0.552098 0.833779 0.552098 68.6035 41.1018)" stroke="white" stroke-opacity="0.5" stroke-width="0.878351"/>
<line y1="-0.439175" x2="12.0868" y2="-0.439175" transform="matrix(0.833779 -0.552098 0.833779 0.552098 65.717 41.1018)" stroke="white" stroke-opacity="0.5" stroke-width="0.878351"/>
<line y1="-0.439175" x2="12.0868" y2="-0.439175" transform="matrix(0.833779 -0.552098 0.833779 0.552098 31.1577 41.1018)" stroke="white" stroke-opacity="0.5" stroke-width="0.878351"/>
<line y1="-0.439175" x2="12.0868" y2="-0.439175" transform="matrix(0.833779 -0.552098 0.833779 0.552098 28.2886 41.1018)" stroke="white" stroke-opacity="0.5" stroke-width="0.878351"/>
<line y1="-0.439175" x2="12.0868" y2="-0.439175" transform="matrix(0.833779 -0.552098 0.833779 0.552098 25.4065 41.1018)" stroke="white" stroke-opacity="0.5" stroke-width="0.878351"/>
<line y1="-0.439175" x2="12.0868" y2="-0.439175" transform="matrix(0.833779 -0.552098 0.833779 0.552098 22.5288 41.1018)" stroke="white" stroke-opacity="0.5" stroke-width="0.878351"/>
<line y1="-0.439175" x2="12.0868" y2="-0.439175" transform="matrix(0.833779 -0.552098 0.833779 0.552098 42.6775 41.1018)" stroke="white" stroke-opacity="0.5" stroke-width="0.878351"/>
<line y1="-0.439175" x2="12.0868" y2="-0.439175" transform="matrix(0.833779 -0.552098 0.833779 0.552098 39.8042 41.1018)" stroke="white" stroke-opacity="0.5" stroke-width="0.878351"/>
<line y1="-0.439175" x2="12.0868" y2="-0.439175" transform="matrix(0.833779 -0.552098 0.833779 0.552098 36.9263 41.1018)" stroke="white" stroke-opacity="0.5" stroke-width="0.878351"/>
<line y1="-0.439175" x2="12.0868" y2="-0.439175" transform="matrix(0.833779 -0.552098 0.833779 0.552098 34.0442 41.1018)" stroke="white" stroke-opacity="0.5" stroke-width="0.878351"/>
<g filter="url(#filter0_d_316_2)">
<path d="M164.206 34.4874L27.7534 34.4874L19.0976 40.526" stroke="#009EFE" stroke-width="1.09794"/>
</g>
<path d="M168.965 11.4304L153.045 1H16.3516L0.980469 11.4304V31.1933L16.9006 41.6237H153.045L168.965 31.1933V20.7629V11.4304Z" fill="url(#paint0_linear_316_2)" stroke="#009EFE" stroke-width="1.09794"/>
<defs>
<filter id="filter0_d_316_2" x="7.80407" y="22.959" width="167.381" height="28.9966" filterUnits="userSpaceOnUse" color-interpolation-filters="sRGB">
<feFlood flood-opacity="0" result="BackgroundImageFix"/>
<feColorMatrix in="SourceAlpha" type="matrix" values="0 0 0 0 0 0 0 0 0 0 0 0 0 0 0 0 0 0 127 0" result="hardAlpha"/>
<feOffset/>
<feGaussianBlur stdDeviation="5.48969"/>
<feComposite in2="hardAlpha" operator="out"/>
<feColorMatrix type="matrix" values="0 0 0 0 0.00784314 0 0 0 0 0.331843 0 0 0 0 0.960784 0 0 0 1 0"/>
<feBlend mode="normal" in2="BackgroundImageFix" result="effect1_dropShadow_316_2"/>
<feBlend mode="normal" in="SourceGraphic" in2="effect1_dropShadow_316_2" result="shape"/>
</filter>
<linearGradient id="paint0_linear_316_2" x1="84.9727" y1="1" x2="84.9727" y2="41.6237" gradientUnits="userSpaceOnUse">
<stop stop-color="#0057A7" stop-opacity="0.61"/>
<stop offset="1" stop-color="#0057A7" stop-opacity="0"/>
</linearGradient>
</defs>
</svg>
