<svg width="158" height="49" viewBox="0 0 158 49" fill="none" xmlns="http://www.w3.org/2000/svg">
<line y1="-0.4" x2="11.0086" y2="-0.4" transform="matrix(0.833779 -0.552098 0.833779 0.552098 136.638 38.5244)" stroke="white" stroke-opacity="0.5" stroke-width="0.8"/>
<line y1="-0.4" x2="11.0086" y2="-0.4" transform="matrix(0.833779 -0.552098 0.833779 0.552098 134.011 38.5244)" stroke="white" stroke-opacity="0.5" stroke-width="0.8"/>
<line y1="-0.4" x2="11.0086" y2="-0.4" transform="matrix(0.833779 -0.552098 0.833779 0.552098 131.384 38.5244)" stroke="white" stroke-opacity="0.5" stroke-width="0.8"/>
<line y1="-0.4" x2="11.0086" y2="-0.4" transform="matrix(0.833779 -0.552098 0.833779 0.552098 128.772 38.5244)" stroke="white" stroke-opacity="0.5" stroke-width="0.8"/>
<line y1="-0.4" x2="11.0086" y2="-0.4" transform="matrix(0.833779 -0.552098 0.833779 0.552098 126.153 38.5244)" stroke="white" stroke-opacity="0.5" stroke-width="0.8"/>
<line y1="-0.4" x2="11.0086" y2="-0.4" transform="matrix(0.833779 -0.552098 0.833779 0.552098 123.534 38.5244)" stroke="white" stroke-opacity="0.5" stroke-width="0.8"/>
<line y1="-0.4" x2="11.0086" y2="-0.4" transform="matrix(0.833779 -0.552098 0.833779 0.552098 120.907 38.5244)" stroke="white" stroke-opacity="0.5" stroke-width="0.8"/>
<line y1="-0.4" x2="11.0086" y2="-0.4" transform="matrix(0.833779 -0.552098 0.833779 0.552098 118.272 38.5244)" stroke="white" stroke-opacity="0.5" stroke-width="0.8"/>
<line y1="-0.4" x2="11.0086" y2="-0.4" transform="matrix(0.833779 -0.552098 0.833779 0.552098 115.653 38.5244)" stroke="white" stroke-opacity="0.5" stroke-width="0.8"/>
<line y1="-0.4" x2="11.0086" y2="-0.4" transform="matrix(0.833779 -0.552098 0.833779 0.552098 113.026 38.5244)" stroke="white" stroke-opacity="0.5" stroke-width="0.8"/>
<line y1="-0.4" x2="11.0086" y2="-0.4" transform="matrix(0.833779 -0.552098 0.833779 0.552098 110.415 38.5244)" stroke="white" stroke-opacity="0.5" stroke-width="0.8"/>
<line y1="-0.4" x2="11.0086" y2="-0.4" transform="matrix(0.833779 -0.552098 0.833779 0.552098 107.795 38.5244)" stroke="white" stroke-opacity="0.5" stroke-width="0.8"/>
<line y1="-0.4" x2="11.0086" y2="-0.4" transform="matrix(0.833779 -0.552098 0.833779 0.552098 105.168 38.5244)" stroke="white" stroke-opacity="0.5" stroke-width="0.8"/>
<line y1="-0.4" x2="11.0086" y2="-0.4" transform="matrix(0.833779 -0.552098 0.833779 0.552098 102.549 38.5244)" stroke="white" stroke-opacity="0.5" stroke-width="0.8"/>
<line y1="-0.4" x2="11.0086" y2="-0.4" transform="matrix(0.833779 -0.552098 0.833779 0.552098 99.9149 38.5244)" stroke="white" stroke-opacity="0.5" stroke-width="0.8"/>
<line y1="-0.4" x2="11.0086" y2="-0.4" transform="matrix(0.833779 -0.552098 0.833779 0.552098 97.2881 38.5244)" stroke="white" stroke-opacity="0.5" stroke-width="0.8"/>
<line y1="-0.4" x2="11.0086" y2="-0.4" transform="matrix(0.833779 -0.552098 0.833779 0.552098 84.1841 38.5244)" stroke="white" stroke-opacity="0.5" stroke-width="0.8"/>
<line y1="-0.4" x2="11.0086" y2="-0.4" transform="matrix(0.833779 -0.552098 0.833779 0.552098 81.5648 38.5244)" stroke="white" stroke-opacity="0.5" stroke-width="0.8"/>
<line y1="-0.4" x2="11.0086" y2="-0.4" transform="matrix(0.833779 -0.552098 0.833779 0.552098 78.938 38.5244)" stroke="white" stroke-opacity="0.5" stroke-width="0.8"/>
<line y1="-0.4" x2="11.0086" y2="-0.4" transform="matrix(0.833779 -0.552098 0.833779 0.552098 76.3188 38.5244)" stroke="white" stroke-opacity="0.5" stroke-width="0.8"/>
<line y1="-0.4" x2="11.0086" y2="-0.4" transform="matrix(0.833779 -0.552098 0.833779 0.552098 73.6995 38.5244)" stroke="white" stroke-opacity="0.5" stroke-width="0.8"/>
<line y1="-0.4" x2="11.0086" y2="-0.4" transform="matrix(0.833779 -0.552098 0.833779 0.552098 71.0727 38.5244)" stroke="white" stroke-opacity="0.5" stroke-width="0.8"/>
<line y1="-0.4" x2="11.0086" y2="-0.4" transform="matrix(0.833779 -0.552098 0.833779 0.552098 68.4459 38.5244)" stroke="white" stroke-opacity="0.5" stroke-width="0.8"/>
<line y1="-0.4" x2="11.0086" y2="-0.4" transform="matrix(0.833779 -0.552098 0.833779 0.552098 94.6763 38.5244)" stroke="white" stroke-opacity="0.5" stroke-width="0.8"/>
<line y1="-0.4" x2="11.0086" y2="-0.4" transform="matrix(0.833779 -0.552098 0.833779 0.552098 92.057 38.5244)" stroke="white" stroke-opacity="0.5" stroke-width="0.8"/>
<line y1="-0.4" x2="11.0086" y2="-0.4" transform="matrix(0.833779 -0.552098 0.833779 0.552098 89.4302 38.5244)" stroke="white" stroke-opacity="0.5" stroke-width="0.8"/>
<line y1="-0.4" x2="11.0086" y2="-0.4" transform="matrix(0.833779 -0.552098 0.833779 0.552098 86.8109 38.5244)" stroke="white" stroke-opacity="0.5" stroke-width="0.8"/>
<line y1="-0.4" x2="11.0086" y2="-0.4" transform="matrix(0.833779 -0.552098 0.833779 0.552098 55.3344 38.5244)" stroke="white" stroke-opacity="0.5" stroke-width="0.8"/>
<line y1="-0.4" x2="11.0086" y2="-0.4" transform="matrix(0.833779 -0.552098 0.833779 0.552098 52.7151 38.5244)" stroke="white" stroke-opacity="0.5" stroke-width="0.8"/>
<line y1="-0.4" x2="11.0086" y2="-0.4" transform="matrix(0.833779 -0.552098 0.833779 0.552098 50.0958 38.5244)" stroke="white" stroke-opacity="0.5" stroke-width="0.8"/>
<line y1="-0.4" x2="11.0086" y2="-0.4" transform="matrix(0.833779 -0.552098 0.833779 0.552098 47.469 38.5244)" stroke="white" stroke-opacity="0.5" stroke-width="0.8"/>
<line y1="-0.4" x2="11.0086" y2="-0.4" transform="matrix(0.833779 -0.552098 0.833779 0.552098 44.8497 38.5244)" stroke="white" stroke-opacity="0.5" stroke-width="0.8"/>
<line y1="-0.4" x2="11.0086" y2="-0.4" transform="matrix(0.833779 -0.552098 0.833779 0.552098 42.2305 38.5244)" stroke="white" stroke-opacity="0.5" stroke-width="0.8"/>
<line y1="-0.4" x2="11.0086" y2="-0.4" transform="matrix(0.833779 -0.552098 0.833779 0.552098 39.6036 38.5244)" stroke="white" stroke-opacity="0.5" stroke-width="0.8"/>
<line y1="-0.4" x2="11.0086" y2="-0.4" transform="matrix(0.833779 -0.552098 0.833779 0.552098 65.8341 38.5244)" stroke="white" stroke-opacity="0.5" stroke-width="0.8"/>
<line y1="-0.4" x2="11.0086" y2="-0.4" transform="matrix(0.833779 -0.552098 0.833779 0.552098 63.2073 38.5244)" stroke="white" stroke-opacity="0.5" stroke-width="0.8"/>
<line y1="-0.4" x2="11.0086" y2="-0.4" transform="matrix(0.833779 -0.552098 0.833779 0.552098 60.588 38.5244)" stroke="white" stroke-opacity="0.5" stroke-width="0.8"/>
<line y1="-0.4" x2="11.0086" y2="-0.4" transform="matrix(0.833779 -0.552098 0.833779 0.552098 57.9612 38.5244)" stroke="white" stroke-opacity="0.5" stroke-width="0.8"/>
<line y1="-0.4" x2="11.0086" y2="-0.4" transform="matrix(0.833779 -0.552098 0.833779 0.552098 26.4846 38.5244)" stroke="white" stroke-opacity="0.5" stroke-width="0.8"/>
<line y1="-0.4" x2="11.0086" y2="-0.4" transform="matrix(0.833779 -0.552098 0.833779 0.552098 23.8729 38.5244)" stroke="white" stroke-opacity="0.5" stroke-width="0.8"/>
<line y1="-0.4" x2="11.0086" y2="-0.4" transform="matrix(0.833779 -0.552098 0.833779 0.552098 21.2461 38.5244)" stroke="white" stroke-opacity="0.5" stroke-width="0.8"/>
<line y1="-0.4" x2="11.0086" y2="-0.4" transform="matrix(0.833779 -0.552098 0.833779 0.552098 18.6268 38.5244)" stroke="white" stroke-opacity="0.5" stroke-width="0.8"/>
<line y1="-0.4" x2="11.0086" y2="-0.4" transform="matrix(0.833779 -0.552098 0.833779 0.552098 36.9768 38.5244)" stroke="white" stroke-opacity="0.5" stroke-width="0.8"/>
<line y1="-0.4" x2="11.0086" y2="-0.4" transform="matrix(0.833779 -0.552098 0.833779 0.552098 34.3575 38.5244)" stroke="white" stroke-opacity="0.5" stroke-width="0.8"/>
<line y1="-0.4" x2="11.0086" y2="-0.4" transform="matrix(0.833779 -0.552098 0.833779 0.552098 31.7383 38.5244)" stroke="white" stroke-opacity="0.5" stroke-width="0.8"/>
<line y1="-0.4" x2="11.0086" y2="-0.4" transform="matrix(0.833779 -0.552098 0.833779 0.552098 29.1115 38.5244)" stroke="white" stroke-opacity="0.5" stroke-width="0.8"/>
<g filter="url(#filter0_d_154_6)">
<path d="M147.664 32.5L23.3837 32.5L15.5 38" stroke="#009EFE"/>
</g>
<path d="M154 10.5L139.5 1H15L1 10.5V28.5L15.5 38H139.5L154 28.5V19V10.5Z" fill="url(#paint0_linear_154_6)" stroke="#009EFE"/>
<defs>
<filter id="filter0_d_154_6" x="5.21393" y="22" width="152.45" height="26.4101" filterUnits="userSpaceOnUse" color-interpolation-filters="sRGB">
<feFlood flood-opacity="0" result="BackgroundImageFix"/>
<feColorMatrix in="SourceAlpha" type="matrix" values="0 0 0 0 0 0 0 0 0 0 0 0 0 0 0 0 0 0 127 0" result="hardAlpha"/>
<feOffset/>
<feGaussianBlur stdDeviation="5"/>
<feComposite in2="hardAlpha" operator="out"/>
<feColorMatrix type="matrix" values="0 0 0 0 0.00784314 0 0 0 0 0.331843 0 0 0 0 0.960784 0 0 0 1 0"/>
<feBlend mode="normal" in2="BackgroundImageFix" result="effect1_dropShadow_154_6"/>
<feBlend mode="normal" in="SourceGraphic" in2="effect1_dropShadow_154_6" result="shape"/>
</filter>
<linearGradient id="paint0_linear_154_6" x1="77.5" y1="1" x2="77.5" y2="38" gradientUnits="userSpaceOnUse">
<stop stop-color="#0057A7" stop-opacity="0.61"/>
<stop offset="1" stop-color="#0057A7" stop-opacity="0"/>
</linearGradient>
</defs>
</svg>
